<svg xmlns="http://www.w3.org/2000/svg" xmlns:xlink="http://www.w3.org/1999/xlink" width="500" zoomAndPan="magnify" viewBox="0 0 375 374.999991" height="500" preserveAspectRatio="xMidYMid meet" version="1.0"><defs><g/><clipPath id="c932fa2319"><path d="M 11.941406 232.089844 L 176.574219 232.089844 L 176.574219 250.394531 L 11.941406 250.394531 Z M 11.941406 232.089844 " clip-rule="nonzero"/></clipPath><clipPath id="a2b35309d4"><path d="M 198.003906 128.039062 L 362.632812 128.039062 L 362.632812 146.347656 L 198.003906 146.347656 Z M 198.003906 128.039062 " clip-rule="nonzero"/></clipPath></defs><g clip-path="url(#c932fa2319)"><path fill="#ffffff" d="M 11.941406 232.089844 L 176.566406 232.089844 L 176.566406 250.394531 L 11.941406 250.394531 Z M 11.941406 232.089844 " fill-opacity="1" fill-rule="nonzero"/></g><g clip-path="url(#a2b35309d4)"><path fill="#ffffff" d="M 198.003906 128.039062 L 362.625 128.039062 L 362.625 146.347656 L 198.003906 146.347656 Z M 198.003906 128.039062 " fill-opacity="1" fill-rule="nonzero"/></g><g fill="#ffffff" fill-opacity="1"><g transform="translate(12.817424, 200.738372)"><g><path d="M 0.953125 0 L 30.515625 -74.421875 L 47.09375 -74.421875 L 76.65625 0 L 58.578125 0 L 53.578125 -12.859375 L 24.03125 -12.859375 L 19.03125 0 Z M 28.390625 -26.15625 L 49.328125 -26.15625 L 38.796875 -53.375 Z M 28.390625 -26.15625 "/></g></g></g><g fill="#ffffff" fill-opacity="1"><g transform="translate(93.81513, 200.738372)"><g><path d="M 8.9375 0 L 8.9375 -74.421875 L 23.28125 -74.421875 L 56.140625 -29.125 L 56.140625 -74.421875 L 72.9375 -74.421875 L 72.9375 0 L 58.578125 0 L 25.734375 -45.609375 L 25.734375 0 Z M 8.9375 0 "/></g></g></g><g fill="#ffffff" fill-opacity="1"><g transform="translate(203.184762, 244.709667)"><g><path d="M 3.9375 0 L 3.9375 -15.84375 L 14.890625 -15.84375 C 19.421875 -15.84375 22.585938 -16.921875 24.390625 -19.078125 C 26.203125 -21.242188 27.109375 -24.378906 27.109375 -28.484375 L 27.109375 -74.421875 L 44.125 -74.421875 L 44.125 -27.21875 C 44.125 -18.644531 41.75 -11.960938 37 -7.171875 C 32.25 -2.390625 25.234375 0 15.953125 0 Z M 3.9375 0 "/></g></g></g><g fill="#ffffff" fill-opacity="1"><g transform="translate(268.878307, 244.709667)"><g><path d="M 44.21875 1.484375 C 36.5 1.484375 29.644531 -0.160156 23.65625 -3.453125 C 17.664062 -6.753906 12.988281 -11.304688 9.625 -17.109375 C 6.257812 -22.921875 4.578125 -29.617188 4.578125 -37.203125 C 4.578125 -44.785156 6.257812 -51.484375 9.625 -57.296875 C 12.988281 -63.109375 17.664062 -67.660156 23.65625 -70.953125 C 29.644531 -74.253906 36.5 -75.90625 44.21875 -75.90625 C 52.019531 -75.90625 58.894531 -74.253906 64.84375 -70.953125 C 70.800781 -67.660156 75.476562 -63.109375 78.875 -57.296875 C 82.28125 -51.484375 83.984375 -44.785156 83.984375 -37.203125 C 83.984375 -29.617188 82.28125 -22.921875 78.875 -17.109375 C 75.476562 -11.304688 70.800781 -6.753906 64.84375 -3.453125 C 58.894531 -0.160156 52.019531 1.484375 44.21875 1.484375 Z M 21.796875 -37.203125 C 21.796875 -32.742188 22.75 -28.8125 24.65625 -25.40625 C 26.570312 -22.007812 29.210938 -19.351562 32.578125 -17.4375 C 35.953125 -15.519531 39.832031 -14.5625 44.21875 -14.5625 C 48.6875 -14.5625 52.601562 -15.519531 55.96875 -17.4375 C 59.332031 -19.351562 61.953125 -22.007812 63.828125 -25.40625 C 65.710938 -28.8125 66.65625 -32.742188 66.65625 -37.203125 C 66.65625 -41.671875 65.710938 -45.601562 63.828125 -49 C 61.953125 -52.40625 59.332031 -55.066406 55.96875 -56.984375 C 52.601562 -58.898438 48.6875 -59.859375 44.21875 -59.859375 C 39.832031 -59.859375 35.953125 -58.898438 32.578125 -56.984375 C 29.210938 -55.066406 26.570312 -52.40625 24.65625 -49 C 22.75 -45.601562 21.796875 -41.671875 21.796875 -37.203125 Z M 21.796875 -37.203125 "/></g></g></g></svg>